<svg width="100" height="100" viewBox="0 0 100 100" fill="none" xmlns="http://www.w3.org/2000/svg">
    <path d="M0 22.5752C0 10.1073 10.1073 0 22.5752 0H77.4248C89.8927 0 100 10.1073 100 22.5752V77.4248C100 89.8927 89.8927 100 77.4248 100H22.5752C10.1073 100 0 89.8927 0 77.4248V22.5752Z" fill="#2B5DA8"/>
    <path d="M56.4521 19.8214C59.3756 16.5682 64.7541 18.9567 64.3011 23.307L62.8194 37.5339C62.6168 39.4794 63.69 41.3341 65.4777 42.128L78.5505 47.9335C82.5478 49.7087 81.9383 55.562 77.6609 56.4754L63.6725 59.4627C61.7596 59.8712 60.3272 61.465 60.1246 63.4105L58.643 77.6374C58.19 81.9877 52.4348 83.2167 50.2443 79.431L43.0805 67.0503C42.1009 65.3573 40.1425 64.4876 38.2296 64.8961L24.2412 67.8833C19.9638 68.7968 17.0165 63.7031 19.94 60.4499L29.501 49.8109C30.8085 48.3561 31.0305 46.2248 30.0508 44.5317L22.8871 32.1511C20.6966 28.3653 24.6302 23.9882 28.6276 25.7633L41.7003 31.5688C43.488 32.3627 45.5836 31.9152 46.8911 30.4603L56.4521 19.8214Z" fill="#FECC07"/>
</svg>